<svg width="1500.000000" height="900.000000" viewBox="-1.25 -1.25 8 15" version="1.1" xmlns="http://www.w3.org/2000/svg" onload="init(evt)">
<style>
	.button{
	    fill:           	#fbfeff;
		stroke:   			#0C2C84;
		stroke-miterlimit:	6;
		stroke-linecap:		butt;
	}
	.button:hover{
		stroke-width:   	2;
	}
	.plus-minus{
		fill:	#fff;
		pointer-events: none;
	}
</style>

<script type="text/ecmascript">
<![CDATA[
	var transMatrix = [1,0,0,1,0,0];
    
    function init(evt)
    {
        if ( window.svgDocument == null )
        {
            svgDoc = evt.target.ownerDocument;

        }
        mapMatrix = svgDoc.getElementById("map-matrix");
        width  = evt.target.getAttributeNS(null, "width");
        height = evt.target.getAttributeNS(null, "height");
    }
    
    function pan(dx, dy)
    {
    	
		transMatrix[4] += dx;
		transMatrix[5] += dy;
        
		newMatrix = "matrix(" +  transMatrix.join(' ') + ")";
		mapMatrix.setAttributeNS(null, "transform", newMatrix);
    }
    
	function zoom(scale)
	{
		for (var i=0; i<transMatrix.length; i++)
		{
			transMatrix[i] *= scale;
		}
		//transMatrix[4] += (1-scale)*width/2;
		//transMatrix[5] += (1-scale)*height/2;
	        
		newMatrix = "matrix(" +  transMatrix.join(' ') + ")";
		mapMatrix.setAttributeNS(null, "transform", newMatrix);
    }
]]>
</script>
<g id="map-matrix" transform="matrix(1 0 0 1 0 0)">
<text x = "0.400000" y="1.200000" font-size="0.120000" style="writing-mode: tb;" fill="brown">V1 SINE ( 0 10 0.159Khz 0.0S )</text>
<circle cx="0" cy="1" r="0.050000"/>
<circle cx="1" cy="1" r="0.050000"/>
<g transform="translate(0,1) scale(0.02125,0.022727272727272728)"> <g transform="translate(-2.992383,-25.08161)"> <path d="m 40,25 c 0,8.284271 -6.715729,15 -15,15 -8.284271,0 -15,-6.715729 -15,-15 0,-8.284271 6.715729,-15 15,-15 8.284271,0 15,6.715729 15,15 l 0,0 z" style="opacity:1;fill:none;fill-opacity:1;stroke:#000000;stroke-width:1.290000;stroke-linecap:square;stroke-miterlimit:4;stroke-dasharray:none;stroke-dashoffset:0;stroke-opacity:1"/> <path d="M 10,25 3,25" style="fill:none;fill-opacity:0.75;fill-rule:evenodd;stroke:#000000;stroke-width:1.290000;stroke-linecap:butt;stroke-linejoin:miter;stroke-opacity:1"/> <path d="m 40,25 11,0" style="fill:none;fill-opacity:0.75;fill-rule:evenodd;stroke:#000000;stroke-width:1.290000;stroke-linecap:butt;stroke-linejoin:miter;stroke-opacity:1"/> <path d="m 16,25.000005 c 0,0 1.5,-5.000001 4.5,-5.000001 3,0 6,10.000002 9,10.000002 3,0 4.5,-5.000001 4.5,-5.000001" style="fill:none;fill-opacity:0.75;fill-rule:evenodd;stroke:#000000;stroke-width:1.290000;stroke-linecap:butt;stroke-linejoin:miter;stroke-opacity:1"/> </g> </g>
<text x = "1.200000" y="1.200000" font-size="0.120000" style="writing-mode: tb;" fill="red">R1 10</text>
<circle cx="1" cy="1" r="0.050000"/>
<circle cx="2" cy="1" r="0.050000"/>
<path d=" M 0 0 l 0 -0.25 l -0.08333333334 -0.04166666667 l 0.166666666667 -0.08333333334 l -0.166666666667 -0.08333333334 l 0.166666666667 -0.08333333334 l -0.166666666667 -0.08333333334 l 0.166666666667 -0.08333333334 l -0.08333333334 -0.04166666667 l 0 -0.25 " stroke="black" stroke-width="0.030000" stroke-linejoin="bevel" fill="none"  transform="translate(1 1) rotate(90)"/>
<text x = "0.200000" y="2.200000" font-size="0.120000" style="writing-mode: tb;" fill="green">L1 10MH</text>
<circle cx="0" cy="2" r="0.050000"/>
<circle cx="2" cy="2" r="0.050000"/>
<path 		d=" 			M 0,0 			L 0,-5.5 			C 0,-5.5 -4,-5.5 -4,-9.5 			C -4,-13.5 0,-13.5 0,-13.5 			C 0,-13.5 -4,-13.5 -4,-17.5 			C -4,-21.5 0,-21.5 0,-21.5 			C 0,-21.5 -4,-21.5 -4,-25.5 			C -4,-29.5 0,-29.5 0,-29.5 			C 0,-29.5 -4,-29.5 -4,-33.5 			C -4,-37.5 0,-37.5 0,-37.5 			L 0,-43 		" 		stroke="black" stroke-width="1.290000" stroke-linejoin="miter" fill="none" fill-rule="evenodd" fill-opacity="0.75" stroke-linecap="butt" stroke-opacity="1" transform="translate(0,2) scale(0.02325581395) rotate(90) " />
 <line x1="1" x2="2" y1="2" y2="2" stroke-width="0.030000" stroke="black"/>
<line x1="2" x2="2" y1="1" y2="2" stroke-width="0.030000" stroke="black"/>
<line x1="0" x2="0" y1="1" y2="2" stroke-width="0.030000" stroke="black"/>
<text x = "0.330000" y="3.200000" font-size="0.120000" style="writing-mode: tb;" fill="blue">C1 1NF</text>
<circle cx="0" cy="3" r="0.050000"/>
<circle cx="2" cy="3" r="0.050000"/>
 	<g transform = "translate(0,3)"> 		<path d=" 			M 0 0 			l 0.4 0 			" stroke="black" stroke-width="0.030000" stroke-linejoin="bevel" fill="none"/> 		<path d=" 			M 0.4 -0.25 			l 0 0.5 			" stroke="black" stroke-width="0.030000" stroke-linejoin="bevel" fill="none"/> 		<path d=" 			M 0.6 -0.25 			l 0 0.5 			" stroke="black" stroke-width="0.030000" stroke-linejoin="bevel" fill="none"/> 		<path d=" 			M 0.6 0 			l 0.4 0 			" stroke="black" stroke-width="0.030000" stroke-linejoin="bevel" fill="none"/>  	</g>  	<line x1="1" x2="2" y1="3" y2="3" stroke-width="0.030000" stroke="black"/>
<line x1="2" x2="2" y1="2" y2="3" stroke-width="0.030000" stroke="black"/>
<line x1="0" x2="0" y1="2" y2="3" stroke-width="0.030000" stroke="black"/>
<text x = "0.330000" y="4.200000" font-size="0.120000" style="writing-mode: tb;" fill="blue">C2 1NF</text>
<circle cx="0" cy="4" r="0.050000"/>
<circle cx="2" cy="4" r="0.050000"/>
 	<g transform = "translate(0,4)"> 		<path d=" 			M 0 0 			l 0.4 0 			" stroke="black" stroke-width="0.030000" stroke-linejoin="bevel" fill="none"/> 		<path d=" 			M 0.4 -0.25 			l 0 0.5 			" stroke="black" stroke-width="0.030000" stroke-linejoin="bevel" fill="none"/> 		<path d=" 			M 0.6 -0.25 			l 0 0.5 			" stroke="black" stroke-width="0.030000" stroke-linejoin="bevel" fill="none"/> 		<path d=" 			M 0.6 0 			l 0.4 0 			" stroke="black" stroke-width="0.030000" stroke-linejoin="bevel" fill="none"/>  	</g>  	<line x1="1" x2="2" y1="4" y2="4" stroke-width="0.030000" stroke="black"/>
<line x1="2" x2="2" y1="3" y2="4" stroke-width="0.030000" stroke="black"/>
<line x1="0" x2="0" y1="3" y2="4" stroke-width="0.030000" stroke="black"/>
<text x = "0.330000" y="5.200000" font-size="0.120000" style="writing-mode: tb;" fill="blue">C3 1NF</text>
<circle cx="0" cy="5" r="0.050000"/>
<circle cx="2" cy="5" r="0.050000"/>
 	<g transform = "translate(0,5)"> 		<path d=" 			M 0 0 			l 0.4 0 			" stroke="black" stroke-width="0.030000" stroke-linejoin="bevel" fill="none"/> 		<path d=" 			M 0.4 -0.25 			l 0 0.5 			" stroke="black" stroke-width="0.030000" stroke-linejoin="bevel" fill="none"/> 		<path d=" 			M 0.6 -0.25 			l 0 0.5 			" stroke="black" stroke-width="0.030000" stroke-linejoin="bevel" fill="none"/> 		<path d=" 			M 0.6 0 			l 0.4 0 			" stroke="black" stroke-width="0.030000" stroke-linejoin="bevel" fill="none"/>  	</g>  	<line x1="1" x2="2" y1="5" y2="5" stroke-width="0.030000" stroke="black"/>
<line x1="2" x2="2" y1="4" y2="5" stroke-width="0.030000" stroke="black"/>
<line x1="0" x2="0" y1="4" y2="5" stroke-width="0.030000" stroke="black"/>
<text x = "0.330000" y="6.200000" font-size="0.120000" style="writing-mode: tb;" fill="blue">C4 1NF</text>
<circle cx="0" cy="6" r="0.050000"/>
<circle cx="2" cy="6" r="0.050000"/>
 	<g transform = "translate(0,6)"> 		<path d=" 			M 0 0 			l 0.4 0 			" stroke="black" stroke-width="0.030000" stroke-linejoin="bevel" fill="none"/> 		<path d=" 			M 0.4 -0.25 			l 0 0.5 			" stroke="black" stroke-width="0.030000" stroke-linejoin="bevel" fill="none"/> 		<path d=" 			M 0.6 -0.25 			l 0 0.5 			" stroke="black" stroke-width="0.030000" stroke-linejoin="bevel" fill="none"/> 		<path d=" 			M 0.6 0 			l 0.4 0 			" stroke="black" stroke-width="0.030000" stroke-linejoin="bevel" fill="none"/>  	</g>  	<line x1="1" x2="2" y1="6" y2="6" stroke-width="0.030000" stroke="black"/>
<line x1="2" x2="2" y1="5" y2="6" stroke-width="0.030000" stroke="black"/>
<line x1="0" x2="0" y1="5" y2="6" stroke-width="0.030000" stroke="black"/>
 <g transform="translate(0,6)"> <g transform="matrix(0.01259861,0,0,0.01413041,-0.15527664,-0.06236267)"> <path d="m 0.5,24.5 24,0" style="fill:none;fill-opacity:0.75;fill-rule:evenodd;stroke:#000000;stroke-width:1.800000;stroke-linecap:butt;stroke-linejoin:miter;stroke-opacity:1"/> <path d="m 4.5,27.5 16,0" style="fill:none;fill-opacity:0.75;fill-rule:evenodd;stroke:#000000;stroke-width:1.800000;stroke-linecap:butt;stroke-linejoin:miter;stroke-opacity:1"/> <path d="m 16.5,30.5 -8,0" style="fill:none;fill-opacity:0.75;fill-rule:evenodd;stroke:#000000;stroke-width:1.800000;stroke-linecap:butt;stroke-linejoin:miter;stroke-opacity:1"/> <path d="m 12.5,24.5 0,-20" style="fill:none;fill-opacity:0.75;fill-rule:evenodd;stroke:#000000;stroke-width:1.800000;stroke-linecap:butt;stroke-linejoin:miter;stroke-opacity:1"/> </g> </g> 
<text x = "0.850000" y="1.150000" font-size="0.120000" fill="black">Net1</text>
<text x = "1.850000" y="6.150000" font-size="0.120000" fill="black">NET2</text>
</g>

<g transform="matrix(0.01 0 0 0.01 -1 -1)">
<circle cx="50" cy="50" r="42" fill="white" opacity="0.75"/>
<path class="button" onclick="pan( 0, 0.6)" d="M50 10 l12   20 a40, 70 0 0,0 -24,  0z" />
<path class="button" onclick="pan( 0.6, 0)" d="M10 50 l20  -12 a70, 40 0 0,0   0, 24z" />
<path class="button" onclick="pan( 0,-0.6)" d="M50 90 l12  -20 a40, 70 0 0,1 -24,  0z" />
<path class="button" onclick="pan(-0.6, 0)" d="M90 50 l-20 -12 a70, 40 0 0,1   0, 24z" />
  
<circle class="compass" cx="50" cy="50" r="20"/>
<circle class="button"  cx="50" cy="41" r="8" onclick="zoom(0.95)"/>
<circle class="button"  cx="50" cy="59" r="8" onclick="zoom(1.05)"/>

<rect class="plus-minus" x="46" y="39.5" width="8" height="3"/>
<rect class="plus-minus" x="46" y="57.5" width="8" height="3"/>
<rect class="plus-minus" x="48.5" y="55" width="3" height="8"/>
</g>
</svg>
